HIERARCHY
ROOT Hips
{
	OFFSET 0.000000 0.000000 0.000000 
	CHANNELS 6 Xposition Yposition Zposition Zrotation Yrotation Xrotation
	JOINT LeftUpLeg
	{
		OFFSET 1.363060 -1.794630 0.839290 
		CHANNELS 3 Zrotation Yrotation Xrotation
		JOINT LeftLeg
		{
			OFFSET 2.448110 -6.726130 0.000000 
			CHANNELS 3 Zrotation Yrotation Xrotation
			JOINT LeftFoot
			{
				OFFSET 2.562200 -7.039590 0.000000 
				CHANNELS 3 Zrotation Yrotation Xrotation
				JOINT LeftToeBase
				{
					OFFSET 0.157640 -0.433110 2.322550 
					CHANNELS 3 Zrotation Yrotation Xrotation
					End Site
					{
						OFFSET 0.000000 0.000000 0.000000 
					}
				}
			}
		}
	}
	JOINT RightUpLeg
	{
		OFFSET -1.305520 -1.794630 0.839290 
		CHANNELS 3 Zrotation Yrotation Xrotation
		JOINT RightLeg
		{
			OFFSET -2.542530 -6.985550 0.000000 
			CHANNELS 3 Zrotation Yrotation Xrotation
			JOINT RightFoot
			{
				OFFSET -2.568260 -7.056230 0.000000 
				CHANNELS 3 Zrotation Yrotation Xrotation
				JOINT RightToeBase
				{
					OFFSET -0.164730 -0.452590 2.363150 
					CHANNELS 3 Zrotation Yrotation Xrotation
					End Site
					{
						OFFSET 0.000000 0.000000 0.000000 
					}
				}
			}
		}
	}
	JOINT Spine
	{
		OFFSET 0.028270 2.035590 -0.193380 
		CHANNELS 3 Zrotation Yrotation Xrotation
		JOINT Spine1
		{
			OFFSET 0.056720 2.048850 -0.042750 
			CHANNELS 3 Zrotation Yrotation Xrotation
			JOINT Neck1
			{
				OFFSET -0.054170 1.746240 0.172020 
				CHANNELS 3 Zrotation Yrotation Xrotation
				JOINT Head
				{
					OFFSET 0.104070 1.761360 -0.123970 
					CHANNELS 3 Zrotation Yrotation Xrotation
					End Site
					{
						OFFSET 0.000000 0.000000 0.000000 
					}
				}
			}
			JOINT LeftArm
			{
				OFFSET 3.362410 1.200890 -0.311210 
				CHANNELS 3 Zrotation Yrotation Xrotation
				JOINT LeftForeArm
				{
					OFFSET 4.983000 -0.000000 -0.000000 
					CHANNELS 3 Zrotation Yrotation Xrotation
					JOINT LeftHand
					{
						OFFSET 3.483560 -0.000000 -0.000000 
						CHANNELS 3 Zrotation Yrotation Xrotation
						JOINT LeftHandIndex1
						{
							OFFSET 0.715260 -0.000000 -0.000000 
							CHANNELS 3 Zrotation Yrotation Xrotation
							End Site
							{
								OFFSET 0.000000 0.000000 0.000000 
							}
						}
					}
				}
			}
			JOINT RightArm
			{
				OFFSET -3.136600 1.374050 -0.404650 
				CHANNELS 3 Zrotation Yrotation Xrotation
				JOINT RightForeArm
				{
					OFFSET -5.241900 -0.000000 -0.000000 
					CHANNELS 3 Zrotation Yrotation Xrotation
					JOINT RightHand
					{
						OFFSET -3.444170 -0.000000 -0.000000 
						CHANNELS 3 Zrotation Yrotation Xrotation
						JOINT RightHandIndex1
						{
							OFFSET -0.622530 -0.000000 -0.000000 
							CHANNELS 3 Zrotation Yrotation Xrotation
							End Site
							{
								OFFSET 0.000000 0.000000 0.000000 
							}
						}
					}
				}
			}
		}
	}
}
MOTION
Frames: 6
Frame Time: 0.041667
-41.929949 17.356768 -18.202122 24.859692 81.534505 24.422039 -22.666259 -4.214857 -4.483599 -0.046604 9.515185 26.573802 2.565915 -11.067143 -2.137442 0.655700 5.179400 14.421000 17.886052 -4.066752 -9.387973 -2.849354 -12.906899 38.567955 0.557104 -11.286330 -25.949978 -0.240300 -3.154700 8.709800 0.636096 -3.757545 -2.333846 -0.258681 -1.894503 8.724806 1.248332 -0.485950 11.244592 5.577600 0.145600 0.108000 -87.272836 8.848679 52.842522 130.291816 -52.128584 -92.613752 -1.323391 -0.653627 -28.303883 -7.125000 0.000000 0.000000 86.056234 -4.630001 28.447279 -61.760815 57.663871 -39.399166 -0.176949 -0.646735 12.727795 7.125000 0.000000 0.000000 
-41.909570 17.395076 -18.200451 23.124857 81.324813 22.663443 -22.628011 -4.747436 -4.899312 0.014337 9.688719 26.964084 2.405950 -9.702781 -2.963312 0.299700 3.520200 9.730600 17.940078 -4.563344 -9.265908 -2.736133 -12.718740 38.022110 0.576590 -11.123674 -25.572270 -0.211500 -2.960600 8.169100 0.695129 -3.686099 -2.361484 0.449623 -1.914092 8.366713 1.093607 -0.455129 11.046444 5.517300 0.182500 -0.110900 -88.006884 9.135203 52.923740 130.340916 -51.990341 -92.575243 -1.355244 -0.642915 -27.971244 -7.125000 0.000000 0.000000 85.535610 -4.966966 28.297325 -62.171976 57.708859 -39.870027 -0.152571 -0.596632 13.514910 7.125000 0.000000 0.000000 
-41.902666 17.397192 -18.203013 22.185234 81.132747 21.798279 -22.674391 -5.294343 -4.690666 0.003505 9.685564 26.925463 2.325569 -9.024499 -3.557295 0.281400 3.411600 9.427000 17.936777 -4.861361 -9.470060 -2.738427 -12.703795 37.983434 0.507228 -10.812408 -25.436229 -0.220200 -3.020900 8.336800 0.750552 -3.618482 -2.402762 1.253198 -1.938629 8.124194 1.165226 -0.198989 11.096411 5.666500 0.291800 -0.015800 -88.709369 9.540904 53.075173 130.497763 -51.811902 -92.612639 -1.393585 -0.612604 -27.472862 -7.125000 0.000000 0.000000 84.987624 -5.138088 28.156401 -62.423012 57.705149 -40.211359 -0.127525 -0.546755 14.305484 7.125000 0.000000 0.000000 
-41.889859 17.395410 -18.204126 23.327302 81.015557 22.960828 -23.030111 -5.862762 -4.424195 0.003814 9.709957 26.967553 2.248434 -8.516325 -3.946114 0.297800 3.509000 9.699300 17.662571 -4.821894 -9.428060 -2.728179 -12.668208 37.889501 0.676582 -11.119900 -24.972751 -0.162300 -2.595800 7.155500 0.757911 -3.719966 -2.397536 1.488305 -2.003920 8.256942 1.283360 0.013982 11.052439 5.897000 0.411100 -0.003400 -88.970552 9.826705 53.012579 130.865421 -51.653592 -92.900307 -1.400746 -0.608360 -27.482063 -7.125000 0.000000 0.000000 84.775808 -4.990864 28.492477 -62.479591 57.717433 -40.245360 -0.110330 -0.527045 14.226801 7.125000 0.000000 0.000000 
-41.877720 17.391513 -18.204349 23.650444 80.938075 23.313625 -23.214590 -6.184523 -4.187877 -0.004632 9.700634 26.928823 2.205813 -8.183943 -4.321710 0.296900 3.503700 9.684500 17.560713 -4.841002 -9.434804 -2.749836 -12.694057 37.971144 0.570940 -10.855427 -25.138564 -0.181300 -2.742500 7.562700 0.755557 -3.895419 -2.363336 1.426989 -2.071168 8.673921 1.443034 0.248498 11.262608 6.189300 0.506400 0.165200 -89.163909 9.268126 52.701181 130.821185 -51.710130 -92.896897 -1.385882 -0.613973 -27.789044 -7.125000 0.000000 0.000000 84.686754 -4.652080 29.005397 -62.479487 57.750973 -40.176836 -0.100959 -0.520660 14.218480 7.125000 0.000000 0.000000 
-41.869368 17.387615 -18.206020 23.788461 80.860575 23.548136 -23.310737 -6.293278 -4.193424 0.005359 9.725679 26.981525 2.201747 -8.080400 -4.607054 0.300400 3.523900 9.741000 17.472145 -5.039454 -9.606128 -2.777962 -12.724565 38.061578 0.409214 -10.406324 -25.314755 -0.217800 -3.004300 8.290700 0.750936 -3.952471 -2.337696 1.367684 -2.092239 8.949264 1.356693 0.329660 11.234125 6.214400 0.559800 0.183100 -89.308962 8.624312 52.638312 130.485771 -51.864277 -92.620511 -1.379093 -0.603719 -27.429165 -7.125000 0.000000 0.000000 84.678153 -4.327238 29.146834 -62.487997 57.757298 -40.163690 -0.090172 -0.510616 14.644284 7.125000 0.000000 0.000000 
